{"title":"Copperhead XVID.avi","uid":8631436,"size":527752348,"categoryP":"video","categoryS":"movies","magnet":"?xt=urn:btih:bae790be395fc298bf845d7e382d43951f5bab14&amp;dn=Copperhead+XVID.avi&amp;tr=udp%3A%2F%2Ftracker.openbittorrent.com%3A80&amp;tr=udp%3A%2F%2Fopen.demonii.com%3A1337&amp;tr=udp%3A%2F%2Ftracker.coppersurfer.tk%3A6969&amp;tr=udp%3A%2F%2Fexodus.desync.com%3A6969","seeders":1,"leechers":0,"uploader":"globeplus","files":-1,"time":1372637046,"description":"Copperhead XVID.avi\n\nGeneral\n\nFormat                                   : AVI\nFormat/Info                              : Audio Video Interleave\nFile size                                : 503 MiB\nDuration                                 : 2h 0mn\nOverall bit rate                         : 586 Kbps\nWriting library                          : VirtualDub build 32842/release\n\nVideo\n\nID                                       : 0\nFormat                                   : MPEG-4 Visual\nFormat profile                           : Simple@L3\nFormat settings, BVOP                    : 2\nFormat settings, QPel                    : No\nFormat settings, GMC                     : No warppoints\nFormat settings, Matrix                  : Default (H.263)\nMuxing mode                              : Packed bitstream\nCodec ID                                 : XVID\nCodec ID/Hint                            : XviD\nDuration                                 : 2h 0mn\nBit rate                                 : 448 Kbps\nWidth                                    : 720 pixels\nHeight                                   : 304 pixels\nDisplay aspect ratio                     : 2.35:1\nFrame rate                               : 24.000 fps\nColor space                              : YUV\nChroma subsampling                       : 4:2:0\nBit depth                                : 8 bits\nScan type                                : Progressive\nCompression mode                         : Lossy\nBits/(Pixel*Frame)                       : 0.085\nStream size                              : 385 MiB (77%)\nWriting library                          : XviD 1.0.2 (UTC 2004-08-29)\n\nAudio\n\nID                                       : 1\nFormat                                   : MPEG Audio\nFormat version                           : Version 1\nFormat profile                           : Layer 3\nMode                                     : Joint stereo\nMode extension                           : MS Stereo\nCodec ID                                 : 55\nCodec ID/Hint                            : MP3\nDuration                                 : 2h 0mn\nBit rate mode                            : Constant\nBit rate                                 : 128 Kbps\nChannel(s)                               : 2 channels\nSampling rate                            : 44.1 KHz\nCompression mode                         : Lossy\nStream size                              : 110 MiB (22%)\nAlignment                                : Split accross interleaves\nInterleave, duration                     : 42 ms (1.00 video frame)\nInterleave, preload duration             : 500 ms\nWriting library                          : LAME3.98.4\n\n\nSynopse :\n\nThe film is based on a nineteenth-century short story, &quot;The Copperhead&quot;, by Harold Frederic. The title refers to Northern opponents of the American Civil War, known as Copperheads.\n\n\n\n* enjoy ...\n","torrent":{"xt":"urn:btih:bae790be395fc298bf845d7e382d43951f5bab14","amp;dn":"Copperhead+XVID.avi","amp;tr":["udp%3A%2F%2Ftracker.openbittorrent.com%3A80","udp%3A%2F%2Fopen.demonii.com%3A1337","udp%3A%2F%2Ftracker.coppersurfer.tk%3A6969","udp%3A%2F%2Fexodus.desync.com%3A6969"],"infoHash":"bae790be395fc298bf845d7e382d43951f5bab14","infoHashBuffer":{"type":"Buffer","data":[186,231,144,190,57,95,194,152,191,132,93,126,56,45,67,149,31,91,171,20]},"announce":[],"urlList":[]}}